<svg xmlns="http://www.w3.org/2000/svg" width="43" height="40" fill="none"><g clip-path="url(#a)"><path fill="#E3DE56" d="M30.757 23.2a18.014 18.014 0 0 0-1.182-1.762 8.605 8.605 0 0 1-8.469 7.027c-4.755 0-8.611-3.842-8.611-8.581a8.575 8.575 0 0 1 4.44-7.508 66.376 66.376 0 0 0-6.477-2.397C9.09 9.547 7.72 9.195 6.365 8.775c-.658-.158-1.261-.337-1.916-.51-.192.234-.411.508-.545.702-.23.315-.239.314-.428.63-.22.366-.44.734-.652 1.106-4.922 8.625-1.783 20.483 7.296 25.474 2.373 1.477 5.876 2.51 8.657 2.888.439.059 1.214.207 1.624.214 3.414-.036 6.662-.568 9.876-1.833.612-.241.89-.79 1.076-1.366 1.274-3.898 1.572-9.184-.596-12.88Z"/><path fill="#262726" d="M12.495 19.884a8.52 8.52 0 0 1 1.213-4.388c-3.178-2.75-6.422-4.13-10.232-5.9-.22.367-.44.735-.652 1.107-4.922 8.625-1.783 20.483 7.296 25.474 3.375-2.55 6.154-5.415 7.466-8.461-3-1.342-5.091-4.344-5.091-7.832Zm4.441-7.508a66.376 66.376 0 0 0-6.478-2.397C9.09 9.547 5.846 8.633 4.449 8.262a7.635 7.635 0 0 0-.561.726c3.362 1.208 7.411 2.816 11.051 4.912a8.65 8.65 0 0 1 1.997-1.524ZM30.757 23.2a18.014 18.014 0 0 0-1.182-1.762 8.592 8.592 0 0 1-4.637 6.132c-.038 3.429-1.389 6.88-3.296 9.734-.397.594-.92 1.364-1.24 1.975 3.413-.036 6.661-.568 9.875-1.833.612-.241.89-.79 1.076-1.366 1.274-3.898 1.572-9.184-.596-12.88Z"/><path fill="#262726" d="M42.028 18.034c-.056-.867-.229-1.69-.428-2.542C39.71 7.41 32.26 1.462 23.675.345 22.533.195 21.205.24 20.041.26 14.944.424 9.515 2.777 6.124 6.352c-.445.47-.935 1.02-1.378 1.464 2.052.276 5.641 1.202 7.61 1.76 2.103.595 4.305 1.256 6.509 2.021a8.652 8.652 0 0 1 2.243-.295c3.39 0 6.32 1.952 7.725 4.789 2.669 1.604 5.058 3.507 6.92 5.806 2.029 2.625 3.11 5.13 3.102 8.41.652-.694.97-1.418 1.356-2.266a20.607 20.607 0 0 0 1.817-10.008Z"/></g><defs><clipPath id="a"><path fill="#fff" d="M0 0h43v40H0z"/></clipPath></defs></svg>